<svg width="416" height="331" viewBox="0 0 416 331" fill="none" xmlns="http://www.w3.org/2000/svg">
<g filter="url(#filter0_i_2028_3688)">
<path d="M20.9004 3.42423C27.1003 0.557686 33.5337 -0.509284 40.2002 0.224036C47.3334 1.09072 53.6999 3.89116 59.2998 8.62443L161.3 95.4242C165.9 99.2909 171.2 101.258 177.2 101.325C183.267 101.391 188.633 99.5578 193.3 95.8246L193.8 95.3246L295.7 8.62443C301.3 3.89115 307.667 1.09073 314.8 0.224036C321.466 -0.509282 327.9 0.5577 334.1 3.42423C340.299 6.29084 345.267 10.4907 349 16.0238C353 22.0238 355 28.7244 355 36.1244V73.9525C371.322 76.584 384.832 85.3827 395.531 100.349C407.198 116.816 413.565 138.449 414.632 165.249C415.898 196.316 415.198 220.749 412.531 238.549C408.465 265.749 399.265 291.083 384.932 314.549C379.998 322.549 372.798 327.316 363.331 328.849L358.132 329.65C346.999 331.45 336.098 330.583 325.432 327.049C318.772 324.844 312.623 321.733 306.984 317.719C303.138 318.455 299.144 318.825 295 318.825H60C43.4 318.825 29.2663 312.957 17.5996 301.224C5.86657 289.491 6.81093e-05 275.358 0 258.825V36.1244C0 28.7244 2 22.0238 6 16.0238C9.73331 10.4907 14.7005 6.29084 20.9004 3.42423ZM355 259.525C354.809 275.149 349.414 288.594 338.816 299.862C343.403 300.801 348.274 300.865 353.432 300.049L358.531 299.15C358.931 299.083 359.198 298.982 359.331 298.849C371.598 278.916 379.431 257.35 382.831 234.15C385.231 218.15 385.865 195.583 384.731 166.45C383.865 145.45 379.332 129.249 371.132 117.849C366.476 111.379 361.097 107.038 355 104.821V259.525ZM321.5 30.6244C319.167 29.5578 317.033 29.8572 315.1 31.5238L213.1 118.224C202.833 126.957 190.967 131.325 177.5 131.325C164.033 131.325 152.167 126.957 141.9 118.224L39.9004 31.5238C37.9671 29.8572 35.8333 29.5578 33.5 30.6244C31.1667 31.6911 30 33.5244 30 36.1244V258.825C30.0001 267.091 32.9332 274.158 38.7998 280.025C44.6664 285.891 51.7334 288.825 60 288.825H283.518C282.914 287.426 282.35 286.002 281.831 284.549C278.031 274.083 276.864 263.216 278.331 251.95C279.531 243.083 283.632 234.25 290.632 225.45C296.232 218.516 300.832 211.216 304.432 203.549C308.965 194.016 311.065 185.683 310.731 178.549C310.198 168.216 309.498 159.883 308.632 153.549C305.299 151.749 302.331 149.45 299.731 146.65C292.398 138.65 289.798 128.683 291.932 116.749C294.398 102.483 300.732 91.4159 310.932 83.5492C315.213 80.2461 319.902 77.7233 325 75.9809V36.1244C325 33.5244 323.833 31.6911 321.5 30.6244ZM325 228.569C321.752 233.961 318.096 239.188 314.031 244.249C310.498 248.649 308.532 252.516 308.132 255.849C306.824 265.76 308.706 274.551 313.776 282.222C314.605 281.542 315.414 280.811 316.2 280.025C322.067 274.158 325 267.091 325 258.825V228.569ZM325 112.079C323.322 114.767 322.132 118.057 321.432 121.95C321.032 124.149 321.165 125.616 321.831 126.349C322.431 126.949 323.165 127.349 324.031 127.549H324.132L325 127.688V112.079Z" fill="url(#paint0_linear_2028_3688)"/>
</g>
<path d="M10.0033 36.9642V259.709C10.0033 287.323 32.3891 309.709 60.0033 309.709H295.003C322.618 309.709 345.003 287.323 345.003 259.709V36.9642C345.003 14.7962 319.04 2.79668 302.156 17.1611L200.183 103.914C187.109 115.037 167.898 115.037 154.824 103.914L52.8507 17.161C35.9663 2.79665 10.0033 14.7962 10.0033 36.9642Z" fill="#FFFCF3"/>
<path d="M302.275 245.833C304.899 244.975 308.111 246.238 309.448 248.655C310.785 251.071 309.741 253.725 307.116 254.583L250.519 273.083C247.895 273.941 244.683 272.678 243.346 270.262C242.009 267.845 243.053 265.191 245.678 264.333L302.275 245.833Z" fill="#2C2C2C"/>
<path d="M52.4193 245.833C49.7946 244.975 46.5829 246.238 45.246 248.655C43.9091 251.071 44.9532 253.725 47.5778 254.583L104.175 273.083C106.8 273.941 110.011 272.678 111.348 270.262C112.685 267.845 111.641 265.191 109.016 264.333L52.4193 245.833Z" fill="#2C2C2C"/>
<path d="M308.503 277.709C311.265 277.709 313.503 279.948 313.503 282.709C313.503 285.47 311.265 287.709 308.503 287.709H251.503C248.742 287.709 246.503 285.47 246.503 282.709C246.503 279.948 248.742 277.709 251.503 277.709H308.503Z" fill="#2C2C2C"/>
<path d="M46.0033 277.709C43.2419 277.709 41.0033 279.948 41.0033 282.709C41.0033 285.47 43.2419 287.709 46.0033 287.709H103.003C105.765 287.709 108.003 285.47 108.003 282.709C108.003 279.948 105.765 277.709 103.003 277.709H46.0033Z" fill="#2C2C2C"/>
<path fill-rule="evenodd" clip-rule="evenodd" d="M147.101 100.543L157.002 108.966C157.003 109.329 157.003 109.692 157.003 110.056C157.003 136.566 154.765 158.056 152.003 158.056C149.242 158.056 147.003 136.566 147.003 110.056C147.003 106.799 147.037 103.618 147.101 100.543Z" fill="#2C2C2C"/>
<path fill-rule="evenodd" clip-rule="evenodd" d="M183.631 119.494L189.866 114.189C189.957 116.758 190.003 119.385 190.003 122.057C190.003 151.881 184.183 176.057 177.003 176.057C169.824 176.057 164.003 151.881 164.003 122.057C164.003 119.671 164.041 117.321 164.113 115.017L169.375 119.494C173.484 122.99 179.522 122.99 183.631 119.494Z" fill="#2C2C2C"/>
<path fill-rule="evenodd" clip-rule="evenodd" d="M197.007 108.114L206.887 99.709C206.963 103.042 207.003 106.505 207.003 110.057C207.003 136.567 204.765 158.057 202.003 158.057C199.242 158.057 197.003 136.567 197.003 110.057C197.003 109.407 197.005 108.759 197.007 108.114Z" fill="#2C2C2C"/>
<path d="M31.0033 43.5035V130.412C31.0033 134.749 34.907 138.043 39.1822 137.312L126.881 122.328C132.796 121.317 134.781 113.82 130.141 110.015L42.4423 38.091C37.8732 34.3437 31.0033 37.5943 31.0033 43.5035Z" fill="#312A20" fill-opacity="0.09"/>
<path d="M323.997 43.5035V130.412C323.997 134.749 320.093 138.043 315.818 137.312L228.12 122.328C222.205 121.317 220.22 113.82 224.86 110.015L312.558 38.091C317.127 34.3437 323.997 37.5943 323.997 43.5035Z" fill="#312A20" fill-opacity="0.09"/>
<path d="M182.003 282.709V309.709H172.003V282.709H182.003Z" fill="#2C2C2C"/>
<ellipse cx="176.503" cy="273.209" rx="20.5" ry="13.5" fill="#2C2C2C"/>
<path d="M56.4838 225.226C75.8641 200.42 111.685 196.022 136.49 215.402C139.754 217.952 140.333 222.667 137.783 225.931C135.233 229.195 130.519 229.774 127.255 227.223C108.977 212.943 82.5848 216.184 68.3048 234.461C65.7547 237.726 61.0405 238.304 57.7765 235.754C54.5124 233.204 53.9336 228.49 56.4838 225.226Z" fill="#2C2C2C"/>
<path d="M217.508 215.402C242.314 196.022 278.135 200.42 297.515 225.225C300.065 228.49 299.486 233.204 296.222 235.754C292.958 238.304 288.244 237.725 285.694 234.461C271.414 216.184 245.022 212.943 226.744 227.223C223.48 229.773 218.766 229.194 216.216 225.93C213.666 222.666 214.244 217.952 217.508 215.402Z" fill="#2C2C2C"/>
<path d="M295.003 299.709V309.709H60.0033V299.709H295.003ZM10.0033 259.709V36.9646C10.0033 14.7966 35.9665 2.79652 52.8509 17.1609L154.824 103.915C167.693 114.864 186.509 115.034 199.565 104.427L200.183 103.915L302.156 17.1609C319.04 2.79662 345.003 14.7989 345.003 36.9666V259.68L344.999 260.327C344.653 287.644 322.402 309.709 295.003 309.709V299.709C317.087 299.709 335.003 281.779 335.003 259.68V36.9666C335.003 23.3229 319.025 15.9401 308.636 24.7781L206.662 111.531C189.853 125.831 165.153 125.831 148.344 111.531L46.3705 24.7781C35.9801 15.9385 20.0033 23.3228 20.0033 36.9646V259.709C20.0033 281.8 37.9119 299.709 60.0033 299.709V309.709C32.3891 309.709 10.0033 287.323 10.0033 259.709Z" fill="#2C2C2C"/>
<path d="M325.607 180.541C326.294 202.192 311.101 225.327 301.316 237.109C297.045 242.252 292.813 249.435 291.824 256.047C286.436 292.082 317.265 323.142 353.339 318.023L358.479 317.293C363.11 316.636 367.292 314.079 369.809 310.137C400.184 262.572 400.878 218.288 399.805 169.834C398.687 119.307 376.118 94.4093 351.166 91.4733C326.213 88.5374 311.48 101.782 307.631 121.718C304.552 137.667 316.079 143.869 322.227 144.976C323.032 146.657 324.833 156.124 325.607 180.541Z" fill="#FFFCF3"/>
<path d="M346.019 257.269C355.723 231.389 377.298 215.549 394.208 221.889C395.797 222.485 397.289 223.255 398.679 224.184C395.972 252.751 388.529 280.821 369.808 310.137C367.922 313.09 365.102 315.265 361.859 316.447C360.917 316.232 359.985 315.953 359.067 315.609C342.158 309.269 336.316 283.149 346.019 257.269Z" fill="#312A20" fill-opacity="0.09"/>
<path d="M318.495 94.0119C327 87.6646 338.27 84.921 351.751 86.5071C380.263 89.8619 403.661 117.976 404.806 169.723C405.881 218.28 405.267 263.905 374.026 312.828C370.676 318.074 365.168 321.394 359.184 322.243L354.043 322.973C314.658 328.562 280.999 294.65 286.882 255.308C288.063 247.41 292.927 239.387 297.471 233.914C302.178 228.247 308.186 219.843 312.91 210.306C317.661 200.716 320.918 190.372 320.612 180.699C320.228 168.582 319.591 160.256 318.964 154.804C318.672 152.265 318.382 150.385 318.133 149.057C314.724 147.898 310.845 145.742 307.73 142.23C303.378 137.322 300.906 130.186 302.724 120.77C304.834 109.843 310.018 100.34 318.495 94.0119ZM350.584 96.4385C339.113 95.0888 330.54 97.5007 324.477 102.026C318.389 106.57 314.281 113.657 312.542 122.665C311.281 129.198 313.034 133.138 315.212 135.596C317.44 138.108 320.5 139.48 322.69 139.969L323.116 140.056L325.635 140.509L326.74 142.818C327.244 143.874 327.602 145.35 327.895 146.85C328.221 148.521 328.565 150.761 328.898 153.661C329.566 159.466 330.217 168.082 330.607 180.382C330.987 192.359 326.991 204.41 321.871 214.745C316.724 225.135 310.243 234.189 305.165 240.303C301.167 245.117 297.568 251.46 296.771 256.786C291.878 289.512 319.877 317.721 352.638 313.072L357.779 312.342C361.056 311.877 363.913 310.083 365.597 307.446C395.105 261.238 395.879 218.294 394.809 169.944C393.717 120.637 371.977 98.9558 350.584 96.4385Z" fill="#2C2C2C"/>
<path d="M299.767 289.542C279.982 281.755 270.255 259.403 278.042 239.617L305.264 170.451C313.052 150.666 335.404 140.939 355.189 148.726L367.489 153.567C387.275 161.354 397.001 183.706 389.214 203.492L361.992 272.658C354.205 292.444 331.853 302.17 312.067 294.383L299.767 289.542Z" fill="#EFBC5C"/>
<path d="M329.93 263.856L316.536 282.257C316.283 282.59 315.955 282.807 315.553 282.91C315.173 283.023 314.797 283 314.425 282.84L313.168 282.301C312.819 282.151 312.549 281.911 312.36 281.582C312.17 281.252 312.087 280.9 312.111 280.524L312.166 280.01C312.273 278.926 312.398 277.67 312.541 276.243C312.708 274.826 312.877 273.341 313.047 271.787C313.064 271.684 313.026 271.613 312.932 271.573C312.863 271.543 312.796 271.569 312.733 271.653C311.967 272.537 311.214 273.427 310.472 274.321C309.739 275.192 309.07 275.981 308.465 276.685C307.882 277.4 307.41 277.956 307.047 278.351C306.824 278.614 306.511 278.797 306.109 278.9C305.739 278.99 305.38 278.96 305.031 278.81L303.739 278.255C303.366 278.096 303.079 277.834 302.876 277.472C302.697 277.119 302.652 276.741 302.742 276.339L306.847 253.952C306.954 253.446 307.242 253.032 307.711 252.71C307.977 252.604 308.235 252.549 308.484 252.546C308.744 252.519 309.002 252.561 309.258 252.671L310.235 253.09C310.608 253.25 310.884 253.506 311.063 253.859C311.266 254.222 311.339 254.597 311.282 254.987L308.687 268.842C308.681 268.922 308.724 268.982 308.817 269.022C308.91 269.061 308.995 269.057 309.072 269.007C309.072 269.007 309.251 268.781 309.611 268.328C309.993 267.886 310.493 267.301 311.108 266.573C311.734 265.821 312.434 264.991 313.21 264.084C313.985 263.176 314.766 262.256 315.551 261.325C315.807 261.049 316.108 260.861 316.454 260.762C316.81 260.639 317.175 260.657 317.547 260.817C317.943 260.987 318.219 261.243 318.375 261.586C318.565 261.915 318.631 262.274 318.574 262.664L317.488 272.618C317.504 272.707 317.559 272.772 317.652 272.812C317.745 272.852 317.819 272.842 317.872 272.782C318.764 271.539 319.651 270.306 320.533 269.086C321.415 267.866 322.233 266.728 322.989 265.674C323.768 264.63 324.43 263.729 324.976 262.97C325.522 262.212 325.904 261.674 326.124 261.354C326.367 261.045 326.678 260.834 327.057 260.721C327.46 260.618 327.848 260.646 328.22 260.806L329.198 261.226C329.454 261.336 329.662 261.494 329.821 261.7C329.991 261.883 330.117 262.103 330.2 262.359C330.346 262.918 330.256 263.417 329.93 263.856Z" fill="#2C2C2C"/>
<path d="M331.281 250.881C330.922 251.719 330.382 252.398 329.664 252.916C328.945 253.435 328.147 253.754 327.268 253.873C326.39 253.993 325.532 253.873 324.694 253.513L317.989 250.636C317.151 250.277 316.461 249.733 315.919 249.004C315.4 248.285 315.081 247.487 314.962 246.609C314.842 245.73 314.962 244.872 315.322 244.034L321.48 229.681C321.85 228.82 322.394 228.13 323.112 227.611C323.831 227.093 324.63 226.774 325.508 226.654C326.409 226.545 327.279 226.67 328.117 227.029L334.822 229.906C335.66 230.266 336.339 230.805 336.857 231.524C337.376 232.242 337.695 233.041 337.814 233.919C337.934 234.797 337.809 235.667 337.439 236.528L331.281 250.881ZM327.126 249.098L333.283 234.745C333.423 234.42 333.342 234.192 333.039 234.062L326.334 231.185C326.218 231.135 326.082 231.132 325.925 231.175C325.792 231.228 325.696 231.325 325.636 231.464L319.478 245.817C319.428 245.933 319.424 246.07 319.468 246.226C319.544 246.369 319.64 246.466 319.757 246.516L326.462 249.392C326.578 249.442 326.703 249.441 326.836 249.388C326.979 249.311 327.076 249.215 327.126 249.098Z" fill="#2C2C2C"/>
<path d="M341.821 225.226C341.631 225.669 341.303 225.983 340.837 226.169C340.405 226.342 339.979 226.338 339.56 226.159L327.547 221.005C327.128 220.825 326.82 220.514 326.624 220.071C326.461 219.615 326.475 219.166 326.665 218.724L335.415 198.33C335.614 197.864 335.931 197.545 336.363 197.372C336.819 197.209 337.256 197.218 337.675 197.398L349.688 202.552C350.107 202.731 350.403 203.038 350.576 203.47C350.772 203.913 350.77 204.367 350.571 204.832L350.166 205.775C349.976 206.217 349.649 206.532 349.183 206.718C348.75 206.891 348.324 206.887 347.905 206.707L338.896 202.842C338.616 202.722 338.412 202.813 338.282 203.116L336.289 207.761C336.149 208.086 336.219 208.309 336.498 208.429L344.251 211.755C344.717 211.955 345.036 212.271 345.209 212.704C345.381 213.136 345.373 213.574 345.183 214.016L344.764 214.994C344.574 215.436 344.258 215.755 343.815 215.951C343.383 216.124 342.934 216.111 342.468 215.911L334.715 212.585C334.436 212.465 334.236 212.545 334.117 212.824L332.094 217.539C331.964 217.841 332.039 218.052 332.318 218.172L341.328 222.038C341.747 222.218 342.043 222.524 342.216 222.956C342.412 223.399 342.41 223.853 342.21 224.318L341.821 225.226Z" fill="#2C2C2C"/>
<path d="M355.691 197.445C355.501 197.887 355.185 198.206 354.742 198.402C354.31 198.575 353.861 198.561 353.395 198.362L352.452 197.957C352.01 197.767 351.691 197.451 351.495 197.009C351.332 196.553 351.345 196.104 351.535 195.662L356.045 185.15C356.085 185.057 356.063 184.979 355.98 184.916C355.92 184.862 355.852 184.861 355.776 184.911L349.457 190.387C349.307 190.543 349.086 190.641 348.793 190.681C348.5 190.721 348.229 190.742 347.979 190.745C347.763 190.735 347.655 190.73 347.655 190.73C346.933 190.421 346.591 189.902 346.628 189.173L346.242 180.82C346.249 180.74 346.2 180.692 346.097 180.676C345.994 180.659 345.923 180.697 345.883 180.79L341.373 191.302C341.183 191.744 340.855 192.058 340.39 192.244C339.957 192.417 339.52 192.409 339.077 192.219L338.1 191.799C337.657 191.609 337.338 191.293 337.142 190.851C336.979 190.395 336.993 189.946 337.182 189.504L345.932 169.109C346.132 168.644 346.448 168.325 346.881 168.152C347.336 167.989 347.786 168.003 348.228 168.192L349.241 168.627C349.892 168.906 350.24 169.414 350.283 170.149C350.289 170.455 350.307 171.056 350.337 171.95C350.4 172.832 350.461 173.878 350.52 175.089C350.58 176.3 350.626 177.574 350.659 178.911C350.725 180.235 350.787 181.502 350.847 182.713C350.853 182.826 350.892 182.898 350.961 182.928C351.054 182.968 351.144 182.951 351.231 182.878L360.689 174.614C361.252 174.138 361.871 174.046 362.546 174.335L363.524 174.755C363.989 174.954 364.308 175.271 364.481 175.703C364.654 176.136 364.64 176.585 364.441 177.05L355.691 197.445Z" fill="#2C2C2C"/>
<path d="M353.36 153.378C336.144 146.602 316.695 155.066 309.919 172.282L282.697 241.448C275.921 258.664 284.384 278.113 301.6 284.889L313.9 289.73C331.116 296.506 350.565 288.042 357.341 270.826L384.563 201.66C391.339 184.444 382.876 164.995 365.66 158.219L353.36 153.378ZM369.322 148.914C391.677 157.712 402.667 182.967 393.869 205.323L366.646 274.489C357.848 296.844 332.593 307.834 310.237 299.035L297.938 294.194C275.583 285.396 264.593 260.141 273.391 237.785L300.614 168.62C309.412 146.264 334.667 135.274 357.023 144.073L369.322 148.914Z" fill="#2C2C2C"/>
<path d="M327.613 150.047C331.609 155.269 343.767 161.207 359.204 146.591L328.092 122.574C320.314 133.316 323.616 144.824 327.613 150.047Z" fill="#FFFCF3"/>
<path d="M324.047 119.643C325.666 117.406 328.792 116.906 331.029 118.525C333.265 120.145 333.765 123.271 332.146 125.508C325.939 134.079 328.624 143.136 331.588 147.009C332.76 148.542 335.488 150.545 339.405 150.767C343.177 150.981 348.791 149.569 355.77 142.961C357.776 141.062 360.941 141.149 362.839 143.154C364.738 145.159 364.652 148.324 362.647 150.223C354.19 158.23 346.005 161.158 338.839 160.751C331.819 160.353 326.469 156.776 323.645 153.086C318.617 146.515 314.696 132.556 324.047 119.643Z" fill="#2C2C2C"/>
<path d="M352.551 155.506C355.972 160.067 366.383 165.249 379.608 152.478L352.97 131.51C346.305 140.895 349.13 150.946 352.551 155.506Z" fill="#FFFCF3"/>
<path d="M348.888 128.615C350.487 126.363 353.609 125.834 355.86 127.432C358.112 129.031 358.64 132.153 357.042 134.404C351.9 141.645 354.134 149.29 356.546 152.506C357.446 153.705 359.59 155.321 362.685 155.499C365.634 155.669 370.246 154.563 376.13 148.881C378.116 146.963 381.282 147.018 383.2 149.005C385.118 150.991 385.063 154.156 383.077 156.074C375.736 163.163 368.529 165.852 362.111 165.483C355.84 165.122 351.068 161.867 348.546 158.506C344.117 152.6 340.701 140.144 348.888 128.615Z" fill="#2C2C2C"/>
<defs>
<filter id="filter0_i_2028_3688" x="0" y="0" width="415.244" height="334.561" filterUnits="userSpaceOnUse" color-interpolation-filters="sRGB">
<feFlood flood-opacity="0" result="BackgroundImageFix"/>
<feBlend mode="normal" in="SourceGraphic" in2="BackgroundImageFix" result="shape"/>
<feColorMatrix in="SourceAlpha" type="matrix" values="0 0 0 0 0 0 0 0 0 0 0 0 0 0 0 0 0 0 127 0" result="hardAlpha"/>
<feOffset dy="4"/>
<feGaussianBlur stdDeviation="2"/>
<feComposite in2="hardAlpha" operator="arithmetic" k2="-1" k3="1"/>
<feColorMatrix type="matrix" values="0 0 0 0 1 0 0 0 0 1 0 0 0 0 1 0 0 0 0.25 0"/>
<feBlend mode="normal" in2="shape" result="effect1_innerShadow_2028_3688"/>
</filter>
<linearGradient id="paint0_linear_2028_3688" x1="346.481" y1="73.0625" x2="346.481" y2="330.56" gradientUnits="userSpaceOnUse">
<stop stop-color="#EFBC5C"/>
<stop offset="1" stop-color="#B8872E"/>
</linearGradient>
</defs>
</svg>
