<svg width="512" height="512" viewBox="0 0 512 512" xmlns="http://www.w3.org/2000/svg">
  <!-- White background -->
  <rect x="36" y="36" width="440" height="440" rx="112" fill="#FFFFFF"/>

  <!-- Mountain M -->
  <path
    d="M136 242
       L136 210
       L196 140
       C204 130 220 130 228 140
       L256 175
       L284 140
       C292 130 308 130 316 140
       L376 210
       L376 242
       L326 242
       L326 200
       L256 285
       L186 200
       L186 242
       Z"
    fill="#111111"/>

  <!-- Infinity S -->
  <path fill-rule="evenodd" clip-rule="evenodd"
    d="M196 305
       C164 305 140 330 140 355
       C140 382 164 402 196 402
       C222 402 240 385 256 365
       C272 385 290 402 316 402
       C348 402 372 382 372 355
       C372 330 348 305 316 305
       C288 305 270 320 256 338
       C242 320 224 305 196 305
       Z

       M196 330
       C214 330 228 345 242 355
       C228 370 214 380 196 380
       C178 380 166 368 166 355
       C166 342 178 330 196 330
       Z

       M316 330
       C334 330 346 342 346 355
       C346 368 334 380 316 380
       C298 380 284 370 270 355
       C284 345 298 330 316 330
       Z"
    fill="#111111"/>
</svg>
