<svg width="512" height="512" viewBox="0 0 512 512" xmlns="http://www.w3.org/2000/svg">
  <rect x="36" y="36" width="440" height="440" rx="112" fill="#111111"/>

  <path
    d="M136 242
       L136 210
       L196 140
       C204 130 220 130 228 140
       L256 175
       L284 140
       C292 130 308 130 316 140
       L376 210
       L376 242
       L326 242
       L326 200
       L256 285
       L186 200
       L186 242
       Z"
    fill="#FFFFFF"/>

  <path
    d="M186 236
       L186 218
       L222 176
       C224 172 228 172 230 176
       L256 198
       L282 176
       C284 172 288 172 290 176
       L326 218
       L326 236
       L300 236
       L300 216
       L256 258
       L212 216
       L212 236
       Z"
    fill="#111111"/>

  <path fill-rule="evenodd" clip-rule="evenodd"
    d="M196 299
       C164 299 140 324 140 349
       C140 376 164 396 196 396
       C222 396 240 379 256 359
       C272 379 290 396 316 396
       C348 396 372 376 372 349
       C372 324 348 299 316 299
       C288 299 270 314 256 332
       C242 314 224 299 196 299
       Z

       M196 324
       C214 324 228 339 242 349
       C228 364 214 374 196 374
       C178 374 166 362 166 349
       C166 336 178 324 196 324
       Z

       M316 324
       C334 324 346 336 346 349
       C346 362 334 374 316 374
       C298 374 284 364 270 349
       C284 339 298 324 316 324
       Z"
    fill="#FFFFFF"/>
</svg>
